<svg xmlns="http://www.w3.org/2000/svg" viewBox="0 0 900 1200" width="900" height="1200" role="img" preserveAspectRatio="xMidYMid slice"><defs>
  <radialGradient id="bg" cx="50.0%" cy="32.0%" r="78%">
    <stop offset="0%" stop-color="#3A3226" stop-opacity="0.55"/>
    <stop offset="42%" stop-color="#141416"/>
    <stop offset="100%" stop-color="#08080A"/>
  </radialGradient>
  <linearGradient id="metal" x1="0%" y1="0%" x2="100%" y2="100%">
    <stop offset="0%" stop-color="#6E5626"/>
    <stop offset="18%" stop-color="#C6A15B"/>
    <stop offset="38%" stop-color="#F0E0B4"/>
    <stop offset="55%" stop-color="#C6A15B"/>
    <stop offset="74%" stop-color="#6E5626"/>
    <stop offset="90%" stop-color="#A8843F"/>
    <stop offset="100%" stop-color="#6E5626"/>
  </linearGradient>
  <linearGradient id="metalV" x1="0%" y1="0%" x2="0%" y2="100%">
    <stop offset="0%" stop-color="#F0E0B4"/>
    <stop offset="30%" stop-color="#C6A15B"/>
    <stop offset="62%" stop-color="#6E5626"/>
    <stop offset="100%" stop-color="#A8843F"/>
  </linearGradient>
  <linearGradient id="stone" x1="20%" y1="0%" x2="80%" y2="100%">
    <stop offset="0%" stop-color="#FFFFFF" stop-opacity="0.95"/>
    <stop offset="45%" stop-color="#D8E3EA" stop-opacity="0.75"/>
    <stop offset="100%" stop-color="#8FA3B0" stop-opacity="0.65"/>
  </linearGradient>
  <linearGradient id="fade" x1="0%" y1="0%" x2="0%" y2="100%">
    <stop offset="0%" stop-color="#0B0B0D" stop-opacity="0.55"/>
    <stop offset="100%" stop-color="#0B0B0D" stop-opacity="0"/>
  </linearGradient>
  <filter id="soft" x="-30%" y="-30%" width="160%" height="160%">
    <feGaussianBlur stdDeviation="14.4"/>
  </filter>
  <filter id="cast" x="-40%" y="-40%" width="180%" height="180%">
    <feDropShadow dx="0" dy="14.4" stdDeviation="16.8"
      flood-color="#000000" flood-opacity="0.55"/>
  </filter>
  <filter id="grain" x="0%" y="0%" width="100%" height="100%">
    <feTurbulence type="fractalNoise" baseFrequency="0.9" numOctaves="3" stitchTiles="stitch"/>
    <feColorMatrix type="saturate" values="0"/>
  </filter>
  <radialGradient id="vig" cx="50%" cy="46%" r="72%">
    <stop offset="55%" stop-color="#000000" stop-opacity="0"/>
    <stop offset="100%" stop-color="#000000" stop-opacity="0.62"/>
  </radialGradient>
</defs><rect width="900" height="1200" fill="url(#bg)"/><g transform="translate(450.0,600.0) scale(1.25) translate(-450.0,-600.0)"><g filter="url(#cast)"><g transform="translate(72.0,402.0) rotate(143.8) scale(1.00,1)"><rect x="-51.8" y="-38.2" width="103.5" height="76.5" rx="35.2" fill="none" stroke="url(#metal)" stroke-width="20.7" opacity="1.0"/><rect x="-46.0" y="-32.5" width="91.9" height="64.9" rx="35.2" fill="none" stroke="#F0E0B4" stroke-width="3.3" opacity="0.5"/></g><g transform="translate(102.2,442.1) rotate(141.5) scale(0.42,1)"><rect x="-51.8" y="-38.2" width="103.5" height="76.5" rx="35.2" fill="none" stroke="url(#metal)" stroke-width="20.7" opacity="1.0"/><rect x="-46.0" y="-32.5" width="91.9" height="64.9" rx="35.2" fill="none" stroke="#F0E0B4" stroke-width="3.3" opacity="0.5"/></g><g transform="translate(132.5,478.8) rotate(138.9) scale(1.00,1)"><rect x="-51.8" y="-38.2" width="103.5" height="76.5" rx="35.2" fill="none" stroke="url(#metal)" stroke-width="20.7" opacity="1.0"/><rect x="-46.0" y="-32.5" width="91.9" height="64.9" rx="35.2" fill="none" stroke="#F0E0B4" stroke-width="3.3" opacity="0.5"/></g><g transform="translate(162.7,512.2) rotate(136.0) scale(0.42,1)"><rect x="-51.8" y="-38.2" width="103.5" height="76.5" rx="35.2" fill="none" stroke="url(#metal)" stroke-width="20.7" opacity="1.0"/><rect x="-46.0" y="-32.5" width="91.9" height="64.9" rx="35.2" fill="none" stroke="#F0E0B4" stroke-width="3.3" opacity="0.5"/></g><g transform="translate(193.0,542.3) rotate(132.8) scale(1.00,1)"><rect x="-51.8" y="-38.2" width="103.5" height="76.5" rx="35.2" fill="none" stroke="url(#metal)" stroke-width="20.7" opacity="1.0"/><rect x="-46.0" y="-32.5" width="91.9" height="64.9" rx="35.2" fill="none" stroke="#F0E0B4" stroke-width="3.3" opacity="0.5"/></g><g transform="translate(223.2,569.0) rotate(129.2) scale(0.42,1)"><rect x="-51.8" y="-38.2" width="103.5" height="76.5" rx="35.2" fill="none" stroke="url(#metal)" stroke-width="20.7" opacity="1.0"/><rect x="-46.0" y="-32.5" width="91.9" height="64.9" rx="35.2" fill="none" stroke="#F0E0B4" stroke-width="3.3" opacity="0.5"/></g><g transform="translate(253.4,592.4) rotate(125.2) scale(1.00,1)"><rect x="-51.8" y="-38.2" width="103.5" height="76.5" rx="35.2" fill="none" stroke="url(#metal)" stroke-width="20.7" opacity="1.0"/><rect x="-46.0" y="-32.5" width="91.9" height="64.9" rx="35.2" fill="none" stroke="#F0E0B4" stroke-width="3.3" opacity="0.5"/></g><g transform="translate(283.7,612.5) rotate(120.7) scale(0.42,1)"><rect x="-51.8" y="-38.2" width="103.5" height="76.5" rx="35.2" fill="none" stroke="url(#metal)" stroke-width="20.7" opacity="1.0"/><rect x="-46.0" y="-32.5" width="91.9" height="64.9" rx="35.2" fill="none" stroke="#F0E0B4" stroke-width="3.3" opacity="0.5"/></g><g transform="translate(313.9,629.2) rotate(115.8) scale(1.00,1)"><rect x="-51.8" y="-38.2" width="103.5" height="76.5" rx="35.2" fill="none" stroke="url(#metal)" stroke-width="20.7" opacity="1.0"/><rect x="-46.0" y="-32.5" width="91.9" height="64.9" rx="35.2" fill="none" stroke="#F0E0B4" stroke-width="3.3" opacity="0.5"/></g><g transform="translate(344.2,642.5) rotate(110.4) scale(0.42,1)"><rect x="-51.8" y="-38.2" width="103.5" height="76.5" rx="35.2" fill="none" stroke="url(#metal)" stroke-width="20.7" opacity="1.0"/><rect x="-46.0" y="-32.5" width="91.9" height="64.9" rx="35.2" fill="none" stroke="#F0E0B4" stroke-width="3.3" opacity="0.5"/></g><g transform="translate(374.4,652.6) rotate(104.7) scale(1.00,1)"><rect x="-51.8" y="-38.2" width="103.5" height="76.5" rx="35.2" fill="none" stroke="url(#metal)" stroke-width="20.7" opacity="1.0"/><rect x="-46.0" y="-32.5" width="91.9" height="64.9" rx="35.2" fill="none" stroke="#F0E0B4" stroke-width="3.3" opacity="0.5"/></g><g transform="translate(404.6,659.2) rotate(98.6) scale(0.42,1)"><rect x="-51.8" y="-38.2" width="103.5" height="76.5" rx="35.2" fill="none" stroke="url(#metal)" stroke-width="20.7" opacity="1.0"/><rect x="-46.0" y="-32.5" width="91.9" height="64.9" rx="35.2" fill="none" stroke="#F0E0B4" stroke-width="3.3" opacity="0.5"/></g><g transform="translate(434.9,662.6) rotate(92.4) scale(1.00,1)"><rect x="-51.8" y="-38.2" width="103.5" height="76.5" rx="35.2" fill="none" stroke="url(#metal)" stroke-width="20.7" opacity="1.0"/><rect x="-46.0" y="-32.5" width="91.9" height="64.9" rx="35.2" fill="none" stroke="#F0E0B4" stroke-width="3.3" opacity="0.5"/></g><g transform="translate(465.1,662.6) rotate(86.1) scale(0.42,1)"><rect x="-51.8" y="-38.2" width="103.5" height="76.5" rx="35.2" fill="none" stroke="url(#metal)" stroke-width="20.7" opacity="1.0"/><rect x="-46.0" y="-32.5" width="91.9" height="64.9" rx="35.2" fill="none" stroke="#F0E0B4" stroke-width="3.3" opacity="0.5"/></g><g transform="translate(495.4,659.2) rotate(79.8) scale(1.00,1)"><rect x="-51.8" y="-38.2" width="103.5" height="76.5" rx="35.2" fill="none" stroke="url(#metal)" stroke-width="20.7" opacity="1.0"/><rect x="-46.0" y="-32.5" width="91.9" height="64.9" rx="35.2" fill="none" stroke="#F0E0B4" stroke-width="3.3" opacity="0.5"/></g><g transform="translate(525.6,652.6) rotate(73.8) scale(0.42,1)"><rect x="-51.8" y="-38.2" width="103.5" height="76.5" rx="35.2" fill="none" stroke="url(#metal)" stroke-width="20.7" opacity="1.0"/><rect x="-46.0" y="-32.5" width="91.9" height="64.9" rx="35.2" fill="none" stroke="#F0E0B4" stroke-width="3.3" opacity="0.5"/></g><g transform="translate(555.8,642.5) rotate(68.2) scale(1.00,1)"><rect x="-51.8" y="-38.2" width="103.5" height="76.5" rx="35.2" fill="none" stroke="url(#metal)" stroke-width="20.7" opacity="1.0"/><rect x="-46.0" y="-32.5" width="91.9" height="64.9" rx="35.2" fill="none" stroke="#F0E0B4" stroke-width="3.3" opacity="0.5"/></g><g transform="translate(586.1,629.2) rotate(62.9) scale(0.42,1)"><rect x="-51.8" y="-38.2" width="103.5" height="76.5" rx="35.2" fill="none" stroke="url(#metal)" stroke-width="20.7" opacity="1.0"/><rect x="-46.0" y="-32.5" width="91.9" height="64.9" rx="35.2" fill="none" stroke="#F0E0B4" stroke-width="3.3" opacity="0.5"/></g><g transform="translate(616.3,612.5) rotate(58.1) scale(1.00,1)"><rect x="-51.8" y="-38.2" width="103.5" height="76.5" rx="35.2" fill="none" stroke="url(#metal)" stroke-width="20.7" opacity="1.0"/><rect x="-46.0" y="-32.5" width="91.9" height="64.9" rx="35.2" fill="none" stroke="#F0E0B4" stroke-width="3.3" opacity="0.5"/></g><g transform="translate(646.6,592.4) rotate(53.8) scale(0.42,1)"><rect x="-51.8" y="-38.2" width="103.5" height="76.5" rx="35.2" fill="none" stroke="url(#metal)" stroke-width="20.7" opacity="1.0"/><rect x="-46.0" y="-32.5" width="91.9" height="64.9" rx="35.2" fill="none" stroke="#F0E0B4" stroke-width="3.3" opacity="0.5"/></g><g transform="translate(676.8,569.0) rotate(49.9) scale(1.00,1)"><rect x="-51.8" y="-38.2" width="103.5" height="76.5" rx="35.2" fill="none" stroke="url(#metal)" stroke-width="20.7" opacity="1.0"/><rect x="-46.0" y="-32.5" width="91.9" height="64.9" rx="35.2" fill="none" stroke="#F0E0B4" stroke-width="3.3" opacity="0.5"/></g><g transform="translate(707.0,542.3) rotate(46.4) scale(0.42,1)"><rect x="-51.8" y="-38.2" width="103.5" height="76.5" rx="35.2" fill="none" stroke="url(#metal)" stroke-width="20.7" opacity="1.0"/><rect x="-46.0" y="-32.5" width="91.9" height="64.9" rx="35.2" fill="none" stroke="#F0E0B4" stroke-width="3.3" opacity="0.5"/></g><g transform="translate(737.3,512.2) rotate(43.2) scale(1.00,1)"><rect x="-51.8" y="-38.2" width="103.5" height="76.5" rx="35.2" fill="none" stroke="url(#metal)" stroke-width="20.7" opacity="1.0"/><rect x="-46.0" y="-32.5" width="91.9" height="64.9" rx="35.2" fill="none" stroke="#F0E0B4" stroke-width="3.3" opacity="0.5"/></g><g transform="translate(767.5,478.8) rotate(40.4) scale(0.42,1)"><rect x="-51.8" y="-38.2" width="103.5" height="76.5" rx="35.2" fill="none" stroke="url(#metal)" stroke-width="20.7" opacity="1.0"/><rect x="-46.0" y="-32.5" width="91.9" height="64.9" rx="35.2" fill="none" stroke="#F0E0B4" stroke-width="3.3" opacity="0.5"/></g><g transform="translate(797.8,442.1) rotate(37.9) scale(1.00,1)"><rect x="-51.8" y="-38.2" width="103.5" height="76.5" rx="35.2" fill="none" stroke="url(#metal)" stroke-width="20.7" opacity="1.0"/><rect x="-46.0" y="-32.5" width="91.9" height="64.9" rx="35.2" fill="none" stroke="#F0E0B4" stroke-width="3.3" opacity="0.5"/></g><g transform="translate(828.0,402.0) rotate(90.0) scale(0.42,1)"><rect x="-51.8" y="-38.2" width="103.5" height="76.5" rx="35.2" fill="none" stroke="url(#metal)" stroke-width="20.7" opacity="1.0"/><rect x="-46.0" y="-32.5" width="91.9" height="64.9" rx="35.2" fill="none" stroke="#F0E0B4" stroke-width="3.3" opacity="0.5"/></g><rect x="409.5" y="330.0" width="81.0" height="49.5" rx="10.8" fill="url(#metalV)" opacity="0"/></g><ellipse cx="450.0" cy="870.0" rx="306.0" ry="45.0" fill="url(#fade)" filter="url(#soft)" opacity="0.9"/></g><rect width="900" height="1200" fill="url(#vig)"/><rect width="900" height="1200" filter="url(#grain)" opacity="0.055"/></svg>