<svg xmlns="http://www.w3.org/2000/svg" viewBox="0 0 800 800" width="800" height="800" role="img" preserveAspectRatio="xMidYMid slice"><defs>
  <radialGradient id="bg" cx="42.0%" cy="30.0%" r="78%">
    <stop offset="0%" stop-color="#3A3226" stop-opacity="0.55"/>
    <stop offset="42%" stop-color="#141416"/>
    <stop offset="100%" stop-color="#08080A"/>
  </radialGradient>
  <linearGradient id="metal" x1="0%" y1="0%" x2="100%" y2="100%">
    <stop offset="0%" stop-color="#6E5626"/>
    <stop offset="18%" stop-color="#C6A15B"/>
    <stop offset="38%" stop-color="#F0E0B4"/>
    <stop offset="55%" stop-color="#C6A15B"/>
    <stop offset="74%" stop-color="#6E5626"/>
    <stop offset="90%" stop-color="#A8843F"/>
    <stop offset="100%" stop-color="#6E5626"/>
  </linearGradient>
  <linearGradient id="metalV" x1="0%" y1="0%" x2="0%" y2="100%">
    <stop offset="0%" stop-color="#F0E0B4"/>
    <stop offset="30%" stop-color="#C6A15B"/>
    <stop offset="62%" stop-color="#6E5626"/>
    <stop offset="100%" stop-color="#A8843F"/>
  </linearGradient>
  <linearGradient id="stone" x1="20%" y1="0%" x2="80%" y2="100%">
    <stop offset="0%" stop-color="#FFFFFF" stop-opacity="0.95"/>
    <stop offset="45%" stop-color="#D8E3EA" stop-opacity="0.75"/>
    <stop offset="100%" stop-color="#8FA3B0" stop-opacity="0.65"/>
  </linearGradient>
  <linearGradient id="fade" x1="0%" y1="0%" x2="0%" y2="100%">
    <stop offset="0%" stop-color="#0B0B0D" stop-opacity="0.55"/>
    <stop offset="100%" stop-color="#0B0B0D" stop-opacity="0"/>
  </linearGradient>
  <filter id="soft" x="-30%" y="-30%" width="160%" height="160%">
    <feGaussianBlur stdDeviation="9.6"/>
  </filter>
  <filter id="cast" x="-40%" y="-40%" width="180%" height="180%">
    <feDropShadow dx="0" dy="9.6" stdDeviation="11.2"
      flood-color="#000000" flood-opacity="0.55"/>
  </filter>
  <filter id="grain" x="0%" y="0%" width="100%" height="100%">
    <feTurbulence type="fractalNoise" baseFrequency="0.9" numOctaves="3" stitchTiles="stitch"/>
    <feColorMatrix type="saturate" values="0"/>
  </filter>
  <radialGradient id="vig" cx="50%" cy="46%" r="72%">
    <stop offset="55%" stop-color="#000000" stop-opacity="0"/>
    <stop offset="100%" stop-color="#000000" stop-opacity="0.62"/>
  </radialGradient>
</defs><rect width="800" height="800" fill="url(#bg)"/><g transform="translate(400.0,400.0) scale(1.2) translate(-400.0,-400.0)"><path d="M400.0,48.0 L775.9,184.8" stroke="#C6A15B" stroke-width="2.4" opacity="0.18"/><path d="M400.0,48.0 L739.2,260.0" stroke="#C6A15B" stroke-width="2.4" opacity="0.18"/><path d="M400.0,48.0 L687.7,325.9" stroke="#C6A15B" stroke-width="2.4" opacity="0.18"/><path d="M400.0,48.0 L623.7,379.6" stroke="#C6A15B" stroke-width="2.4" opacity="0.18"/><path d="M400.0,48.0 L549.8,418.9" stroke="#C6A15B" stroke-width="2.4" opacity="0.18"/><path d="M400.0,48.0 L469.5,441.9" stroke="#C6A15B" stroke-width="2.4" opacity="0.18"/><path d="M400.0,48.0 L386.0,447.8" stroke="#C6A15B" stroke-width="2.4" opacity="0.18"/><path d="M400.0,48.0 L303.2,436.1" stroke="#C6A15B" stroke-width="2.4" opacity="0.18"/><path d="M400.0,48.0 L224.7,407.5" stroke="#C6A15B" stroke-width="2.4" opacity="0.18"/><path d="M400.0,48.0 L153.7,363.2" stroke="#C6A15B" stroke-width="2.4" opacity="0.18"/><path d="M400.0,48.0 L93.6,305.1" stroke="#C6A15B" stroke-width="2.4" opacity="0.18"/><path d="M400.0,48.0 L46.8,235.8" stroke="#C6A15B" stroke-width="2.4" opacity="0.18"/><path d="M400.0,48.0 L15.5,158.3" stroke="#C6A15B" stroke-width="2.4" opacity="0.18"/><g filter="url(#cast)"><circle cx="352.0" cy="400.0" r="124.0" fill="none" stroke="url(#metal)" stroke-width="21.1"/><circle cx="352.0" cy="400.0" r="111.6" fill="#FFFFFF" opacity="0.05"/><path d="M441.3,489.3 L560.0,608.0" stroke="url(#metalV)" stroke-width="18.6" stroke-linecap="round"/><g transform="translate(640.0,144.0) rotate(28)"><path d="M0,0 L9.6,272.0" stroke="url(#metalV)" stroke-width="8.8" stroke-linecap="round"/><path d="M20.8,0 L16.0,272.0" stroke="url(#metalV)" stroke-width="8.8" stroke-linecap="round"/></g><polygon points="548.0,656.0 572.0,618.4 604.0,634.4 584.0,672.0" fill="url(#stone)" stroke="#F0E0B4" stroke-width="2.4" opacity="0.9"/></g><ellipse cx="400.0" cy="704.0" rx="240.0" ry="28.0" fill="url(#fade)" filter="url(#soft)" opacity="0.9"/></g><rect width="800" height="800" fill="url(#vig)"/><rect width="800" height="800" filter="url(#grain)" opacity="0.055"/></svg>