<svg xmlns="http://www.w3.org/2000/svg" viewBox="0 0 1000 1000" width="1000" height="1000" role="img" preserveAspectRatio="xMidYMid slice"><defs>
  <radialGradient id="bg" cx="50.0%" cy="34.0%" r="78%">
    <stop offset="0%" stop-color="#3A3226" stop-opacity="0.55"/>
    <stop offset="42%" stop-color="#141416"/>
    <stop offset="100%" stop-color="#08080A"/>
  </radialGradient>
  <linearGradient id="metal" x1="0%" y1="0%" x2="100%" y2="100%">
    <stop offset="0%" stop-color="#6E5626"/>
    <stop offset="18%" stop-color="#C6A15B"/>
    <stop offset="38%" stop-color="#F0E0B4"/>
    <stop offset="55%" stop-color="#C6A15B"/>
    <stop offset="74%" stop-color="#6E5626"/>
    <stop offset="90%" stop-color="#A8843F"/>
    <stop offset="100%" stop-color="#6E5626"/>
  </linearGradient>
  <linearGradient id="metalV" x1="0%" y1="0%" x2="0%" y2="100%">
    <stop offset="0%" stop-color="#F0E0B4"/>
    <stop offset="30%" stop-color="#C6A15B"/>
    <stop offset="62%" stop-color="#6E5626"/>
    <stop offset="100%" stop-color="#A8843F"/>
  </linearGradient>
  <linearGradient id="stone" x1="20%" y1="0%" x2="80%" y2="100%">
    <stop offset="0%" stop-color="#FFFFFF" stop-opacity="0.95"/>
    <stop offset="45%" stop-color="#D8E3EA" stop-opacity="0.75"/>
    <stop offset="100%" stop-color="#8FA3B0" stop-opacity="0.65"/>
  </linearGradient>
  <linearGradient id="fade" x1="0%" y1="0%" x2="0%" y2="100%">
    <stop offset="0%" stop-color="#0B0B0D" stop-opacity="0.55"/>
    <stop offset="100%" stop-color="#0B0B0D" stop-opacity="0"/>
  </linearGradient>
  <filter id="soft" x="-30%" y="-30%" width="160%" height="160%">
    <feGaussianBlur stdDeviation="12.0"/>
  </filter>
  <filter id="cast" x="-40%" y="-40%" width="180%" height="180%">
    <feDropShadow dx="0" dy="12.0" stdDeviation="14.0"
      flood-color="#000000" flood-opacity="0.55"/>
  </filter>
  <filter id="grain" x="0%" y="0%" width="100%" height="100%">
    <feTurbulence type="fractalNoise" baseFrequency="0.9" numOctaves="3" stitchTiles="stitch"/>
    <feColorMatrix type="saturate" values="0"/>
  </filter>
  <radialGradient id="vig" cx="50%" cy="46%" r="72%">
    <stop offset="55%" stop-color="#000000" stop-opacity="0"/>
    <stop offset="100%" stop-color="#000000" stop-opacity="0.62"/>
  </radialGradient>
</defs><rect width="1000" height="1000" fill="url(#bg)"/><g transform="translate(500.0,500.0) scale(1.05) translate(-500.0,-500.0)"><g filter="url(#cast)"><line x1="396.5" y1="321.5" x2="436.8" y2="419.2" stroke="url(#metalV)" stroke-width="12.7" stroke-linecap="round"/><line x1="603.5" y1="321.5" x2="563.2" y2="419.2" stroke="url(#metalV)" stroke-width="12.7" stroke-linecap="round"/><g transform="translate(500.0,310.0)"><polygon points="-115.0,-32.2 -71.3,-98.9 71.3,-98.9 115.0,-32.2 0,71.3" fill="url(#stone)" stroke="#F0E0B4" stroke-width="3.4"/><polyline points="-69.0,-32.2 69.0,-32.2" fill="none" stroke="#FFFFFF" stroke-width="3.4" opacity="0.8"/><polyline points="-69.0,-32.2 0,71.3 69.0,-32.2" fill="none" stroke="#FFFFFF" stroke-width="2.9" opacity="0.55"/><polyline points="0,-98.9 0,71.3" fill="none" stroke="#FFFFFF" stroke-width="2.3" opacity="0.4"/></g><ellipse cx="500.0" cy="540.0" rx="200.0" ry="204.0" fill="none" stroke="url(#metal)" stroke-width="60.0"/><ellipse cx="500.0" cy="540.0" rx="212.0" ry="216.0" fill="none" stroke="#F0E0B4" stroke-width="4.0" opacity="0.45"/></g><ellipse cx="500.0" cy="790.0" rx="300.0" ry="44.0" fill="url(#fade)" filter="url(#soft)" opacity="0.9"/></g><rect width="1000" height="1000" fill="url(#vig)"/><rect width="1000" height="1000" filter="url(#grain)" opacity="0.055"/></svg>