<svg xmlns="http://www.w3.org/2000/svg" viewBox="0 0 1000 1000" width="1000" height="1000" role="img" preserveAspectRatio="xMidYMid slice"><defs>
  <radialGradient id="bg" cx="50.0%" cy="30.0%" r="78%">
    <stop offset="0%" stop-color="#FFFFFF" stop-opacity="1"/>
    <stop offset="42%" stop-color="#FFFFFF"/>
    <stop offset="100%" stop-color="#E8E4DC"/>
  </radialGradient>
  <linearGradient id="metal" x1="0%" y1="0%" x2="100%" y2="100%">
    <stop offset="0%" stop-color="#8A6C2F"/>
    <stop offset="18%" stop-color="#C6A15B"/>
    <stop offset="38%" stop-color="#F0E0B4"/>
    <stop offset="55%" stop-color="#C6A15B"/>
    <stop offset="74%" stop-color="#8A6C2F"/>
    <stop offset="90%" stop-color="#A8843F"/>
    <stop offset="100%" stop-color="#8A6C2F"/>
  </linearGradient>
  <linearGradient id="metalV" x1="0%" y1="0%" x2="0%" y2="100%">
    <stop offset="0%" stop-color="#F0E0B4"/>
    <stop offset="30%" stop-color="#C6A15B"/>
    <stop offset="62%" stop-color="#8A6C2F"/>
    <stop offset="100%" stop-color="#A8843F"/>
  </linearGradient>
  <linearGradient id="stone" x1="20%" y1="0%" x2="80%" y2="100%">
    <stop offset="0%" stop-color="#FFFFFF" stop-opacity="0.95"/>
    <stop offset="45%" stop-color="#D8E3EA" stop-opacity="0.75"/>
    <stop offset="100%" stop-color="#8FA3B0" stop-opacity="0.65"/>
  </linearGradient>
  <linearGradient id="fade" x1="0%" y1="0%" x2="0%" y2="100%">
    <stop offset="0%" stop-color="#DED8CD" stop-opacity="0.55"/>
    <stop offset="100%" stop-color="#DED8CD" stop-opacity="0"/>
  </linearGradient>
  <filter id="soft" x="-30%" y="-30%" width="160%" height="160%">
    <feGaussianBlur stdDeviation="12.0"/>
  </filter>
  <filter id="cast" x="-40%" y="-40%" width="180%" height="180%">
    <feDropShadow dx="0" dy="12.0" stdDeviation="14.0"
      flood-color="#000000" flood-opacity="0.32"/>
  </filter>
  <filter id="grain" x="0%" y="0%" width="100%" height="100%">
    <feTurbulence type="fractalNoise" baseFrequency="0.9" numOctaves="3" stitchTiles="stitch"/>
    <feColorMatrix type="saturate" values="0"/>
  </filter>
  <radialGradient id="vig" cx="50%" cy="46%" r="72%">
    <stop offset="55%" stop-color="#000000" stop-opacity="0"/>
    <stop offset="100%" stop-color="#000000" stop-opacity="0.2"/>
  </radialGradient>
</defs><rect width="1000" height="1000" fill="url(#bg)"/><g transform="translate(500.0,500.0) scale(1.05) translate(-500.0,-500.0)"><g filter="url(#cast)"><circle cx="345.0" cy="400.0" r="85.0" fill="none" stroke="url(#metal)" stroke-width="22.1"/><rect x="331.0" y="478.2" width="28.0" height="42.0" rx="13.0" fill="none" stroke="url(#metalV)" stroke-width="9.0"/><polygon points="310.4,514.2 297.0,554.9 345.0,699.2 393.0,554.9 379.6,514.2" fill="url(#stone)" stroke="#A8843F" stroke-width="5.0"/><polyline points="297.0,554.9 345.0,580.8 393.0,554.9" fill="none" stroke="#A8843F" opacity="0.5" stroke-width="3.5"/><line x1="345.0" y1="580.8" x2="345.0" y2="699.2" stroke="#A8843F" opacity="0.45" stroke-width="3.0"/><circle cx="655.0" cy="400.0" r="85.0" fill="none" stroke="url(#metal)" stroke-width="22.1"/><rect x="641.0" y="478.2" width="28.0" height="42.0" rx="13.0" fill="none" stroke="url(#metalV)" stroke-width="9.0"/><polygon points="620.4,514.2 607.0,554.9 655.0,699.2 703.0,554.9 689.6,514.2" fill="url(#stone)" stroke="#A8843F" stroke-width="5.0"/><polyline points="607.0,554.9 655.0,580.8 703.0,554.9" fill="none" stroke="#A8843F" opacity="0.5" stroke-width="3.5"/><line x1="655.0" y1="580.8" x2="655.0" y2="699.2" stroke="#A8843F" opacity="0.45" stroke-width="3.0"/></g><ellipse cx="500.0" cy="730.0" rx="240.0" ry="35.0" fill="url(#fade)" filter="url(#soft)" opacity="0.9"/></g><rect width="1000" height="1000" fill="url(#vig)"/><rect width="1000" height="1000" filter="url(#grain)" opacity="0.04"/></svg>