<svg xmlns="http://www.w3.org/2000/svg" viewBox="0 0 1000 1000" width="1000" height="1000" role="img" preserveAspectRatio="xMidYMid slice"><defs>
  <radialGradient id="bg" cx="50.0%" cy="32.0%" r="78%">
    <stop offset="0%" stop-color="#F6EEE0" stop-opacity="1"/>
    <stop offset="42%" stop-color="#E9E0D2"/>
    <stop offset="100%" stop-color="#CBBCA5"/>
  </radialGradient>
  <linearGradient id="metal" x1="0%" y1="0%" x2="100%" y2="100%">
    <stop offset="0%" stop-color="#8A6C2F"/>
    <stop offset="18%" stop-color="#C6A15B"/>
    <stop offset="38%" stop-color="#F0E0B4"/>
    <stop offset="55%" stop-color="#C6A15B"/>
    <stop offset="74%" stop-color="#8A6C2F"/>
    <stop offset="90%" stop-color="#A8843F"/>
    <stop offset="100%" stop-color="#8A6C2F"/>
  </linearGradient>
  <linearGradient id="metalV" x1="0%" y1="0%" x2="0%" y2="100%">
    <stop offset="0%" stop-color="#F0E0B4"/>
    <stop offset="30%" stop-color="#C6A15B"/>
    <stop offset="62%" stop-color="#8A6C2F"/>
    <stop offset="100%" stop-color="#A8843F"/>
  </linearGradient>
  <linearGradient id="stone" x1="20%" y1="0%" x2="80%" y2="100%">
    <stop offset="0%" stop-color="#FFFFFF" stop-opacity="0.95"/>
    <stop offset="45%" stop-color="#D8E3EA" stop-opacity="0.75"/>
    <stop offset="100%" stop-color="#8FA3B0" stop-opacity="0.65"/>
  </linearGradient>
  <linearGradient id="fade" x1="0%" y1="0%" x2="0%" y2="100%">
    <stop offset="0%" stop-color="#BFAF97" stop-opacity="0.55"/>
    <stop offset="100%" stop-color="#BFAF97" stop-opacity="0"/>
  </linearGradient>
  <filter id="soft" x="-30%" y="-30%" width="160%" height="160%">
    <feGaussianBlur stdDeviation="12.0"/>
  </filter>
  <filter id="cast" x="-40%" y="-40%" width="180%" height="180%">
    <feDropShadow dx="0" dy="12.0" stdDeviation="14.0"
      flood-color="#000000" flood-opacity="0.32"/>
  </filter>
  <filter id="grain" x="0%" y="0%" width="100%" height="100%">
    <feTurbulence type="fractalNoise" baseFrequency="0.9" numOctaves="3" stitchTiles="stitch"/>
    <feColorMatrix type="saturate" values="0"/>
  </filter>
  <radialGradient id="vig" cx="50%" cy="46%" r="72%">
    <stop offset="55%" stop-color="#000000" stop-opacity="0"/>
    <stop offset="100%" stop-color="#000000" stop-opacity="0.2"/>
  </radialGradient>
</defs><rect width="1000" height="1000" fill="url(#bg)"/><g transform="translate(500.0,500.0) scale(1.0) translate(-500.0,-500.0)"><line x1="-25.0" y1="0.0" x2="-25.0" y2="1000.0" stroke="#A8843F" stroke-width="0.6" opacity="0.10"/><line x1="-50.0" y1="-25.0" x2="1050.0" y2="-25.0" stroke="#A8843F" stroke-width="0.6" opacity="0.10"/><line x1="50.0" y1="0.0" x2="50.0" y2="1000.0" stroke="#A8843F" stroke-width="0.6" opacity="0.10"/><line x1="-50.0" y1="50.0" x2="1050.0" y2="50.0" stroke="#A8843F" stroke-width="0.6" opacity="0.10"/><line x1="125.0" y1="0.0" x2="125.0" y2="1000.0" stroke="#A8843F" stroke-width="0.6" opacity="0.10"/><line x1="-50.0" y1="125.0" x2="1050.0" y2="125.0" stroke="#A8843F" stroke-width="0.6" opacity="0.10"/><line x1="200.0" y1="0.0" x2="200.0" y2="1000.0" stroke="#A8843F" stroke-width="0.6" opacity="0.10"/><line x1="-50.0" y1="200.0" x2="1050.0" y2="200.0" stroke="#A8843F" stroke-width="0.6" opacity="0.10"/><line x1="275.0" y1="0.0" x2="275.0" y2="1000.0" stroke="#A8843F" stroke-width="0.6" opacity="0.10"/><line x1="-50.0" y1="275.0" x2="1050.0" y2="275.0" stroke="#A8843F" stroke-width="0.6" opacity="0.10"/><line x1="350.0" y1="0.0" x2="350.0" y2="1000.0" stroke="#A8843F" stroke-width="0.6" opacity="0.10"/><line x1="-50.0" y1="350.0" x2="1050.0" y2="350.0" stroke="#A8843F" stroke-width="0.6" opacity="0.10"/><line x1="425.0" y1="0.0" x2="425.0" y2="1000.0" stroke="#A8843F" stroke-width="0.6" opacity="0.10"/><line x1="-50.0" y1="425.0" x2="1050.0" y2="425.0" stroke="#A8843F" stroke-width="0.6" opacity="0.10"/><line x1="500.0" y1="0.0" x2="500.0" y2="1000.0" stroke="#A8843F" stroke-width="0.6" opacity="0.10"/><line x1="-50.0" y1="500.0" x2="1050.0" y2="500.0" stroke="#A8843F" stroke-width="0.6" opacity="0.10"/><line x1="575.0" y1="0.0" x2="575.0" y2="1000.0" stroke="#A8843F" stroke-width="0.6" opacity="0.10"/><line x1="-50.0" y1="575.0" x2="1050.0" y2="575.0" stroke="#A8843F" stroke-width="0.6" opacity="0.10"/><line x1="650.0" y1="0.0" x2="650.0" y2="1000.0" stroke="#A8843F" stroke-width="0.6" opacity="0.10"/><line x1="-50.0" y1="650.0" x2="1050.0" y2="650.0" stroke="#A8843F" stroke-width="0.6" opacity="0.10"/><line x1="725.0" y1="0.0" x2="725.0" y2="1000.0" stroke="#A8843F" stroke-width="0.6" opacity="0.10"/><line x1="-50.0" y1="725.0" x2="1050.0" y2="725.0" stroke="#A8843F" stroke-width="0.6" opacity="0.10"/><line x1="800.0" y1="0.0" x2="800.0" y2="1000.0" stroke="#A8843F" stroke-width="0.6" opacity="0.10"/><line x1="-50.0" y1="800.0" x2="1050.0" y2="800.0" stroke="#A8843F" stroke-width="0.6" opacity="0.10"/><line x1="875.0" y1="0.0" x2="875.0" y2="1000.0" stroke="#A8843F" stroke-width="0.6" opacity="0.10"/><line x1="-50.0" y1="875.0" x2="1050.0" y2="875.0" stroke="#A8843F" stroke-width="0.6" opacity="0.10"/><line x1="950.0" y1="0.0" x2="950.0" y2="1000.0" stroke="#A8843F" stroke-width="0.6" opacity="0.10"/><line x1="-50.0" y1="950.0" x2="1050.0" y2="950.0" stroke="#A8843F" stroke-width="0.6" opacity="0.10"/><line x1="1025.0" y1="0.0" x2="1025.0" y2="1000.0" stroke="#A8843F" stroke-width="0.6" opacity="0.10"/><line x1="-50.0" y1="1025.0" x2="1050.0" y2="1025.0" stroke="#A8843F" stroke-width="0.6" opacity="0.10"/><circle cx="500.0" cy="500.0" r="300.00" fill="none" stroke="#A8843F" stroke-width="3.5" opacity="0.35" stroke-dasharray="12.0 12.0"/><circle cx="500.0" cy="500.0" r="235.00" fill="none" stroke="#A8843F" stroke-width="3.5" opacity="0.5" stroke-dasharray="12.0 12.0"/><circle cx="500.0" cy="500.0" r="360.00" fill="none" stroke="#A8843F" stroke-width="3.5" opacity="0.22" stroke-dasharray="12.0 12.0"/><line x1="900.0" y1="500.0" x2="935.0" y2="500.0" stroke="#A8843F" stroke-width="3.5" opacity="0.28"/><line x1="893.9" y1="569.5" x2="928.4" y2="575.5" stroke="#A8843F" stroke-width="3.5" opacity="0.28"/><line x1="875.9" y1="636.8" x2="908.8" y2="648.8" stroke="#A8843F" stroke-width="3.5" opacity="0.28"/><line x1="846.4" y1="700.0" x2="876.7" y2="717.5" stroke="#A8843F" stroke-width="3.5" opacity="0.28"/><line x1="806.4" y1="757.1" x2="833.2" y2="779.6" stroke="#A8843F" stroke-width="3.5" opacity="0.28"/><line x1="757.1" y1="806.4" x2="779.6" y2="833.2" stroke="#A8843F" stroke-width="3.5" opacity="0.28"/><line x1="700.0" y1="846.4" x2="717.5" y2="876.7" stroke="#A8843F" stroke-width="3.5" opacity="0.28"/><line x1="636.8" y1="875.9" x2="648.8" y2="908.8" stroke="#A8843F" stroke-width="3.5" opacity="0.28"/><line x1="569.5" y1="893.9" x2="575.5" y2="928.4" stroke="#A8843F" stroke-width="3.5" opacity="0.28"/><line x1="500.0" y1="900.0" x2="500.0" y2="935.0" stroke="#A8843F" stroke-width="3.5" opacity="0.28"/><line x1="430.5" y1="893.9" x2="424.5" y2="928.4" stroke="#A8843F" stroke-width="3.5" opacity="0.28"/><line x1="363.2" y1="875.9" x2="351.2" y2="908.8" stroke="#A8843F" stroke-width="3.5" opacity="0.28"/><line x1="300.0" y1="846.4" x2="282.5" y2="876.7" stroke="#A8843F" stroke-width="3.5" opacity="0.28"/><line x1="242.9" y1="806.4" x2="220.4" y2="833.2" stroke="#A8843F" stroke-width="3.5" opacity="0.28"/><line x1="193.6" y1="757.1" x2="166.8" y2="779.6" stroke="#A8843F" stroke-width="3.5" opacity="0.28"/><line x1="153.6" y1="700.0" x2="123.3" y2="717.5" stroke="#A8843F" stroke-width="3.5" opacity="0.28"/><line x1="124.1" y1="636.8" x2="91.2" y2="648.8" stroke="#A8843F" stroke-width="3.5" opacity="0.28"/><line x1="106.1" y1="569.5" x2="71.6" y2="575.5" stroke="#A8843F" stroke-width="3.5" opacity="0.28"/><line x1="100.0" y1="500.0" x2="65.0" y2="500.0" stroke="#A8843F" stroke-width="3.5" opacity="0.28"/><line x1="106.1" y1="430.5" x2="71.6" y2="424.5" stroke="#A8843F" stroke-width="3.5" opacity="0.28"/><line x1="124.1" y1="363.2" x2="91.2" y2="351.2" stroke="#A8843F" stroke-width="3.5" opacity="0.28"/><line x1="153.6" y1="300.0" x2="123.3" y2="282.5" stroke="#A8843F" stroke-width="3.5" opacity="0.28"/><line x1="193.6" y1="242.9" x2="166.8" y2="220.4" stroke="#A8843F" stroke-width="3.5" opacity="0.28"/><line x1="242.9" y1="193.6" x2="220.4" y2="166.8" stroke="#A8843F" stroke-width="3.5" opacity="0.28"/><line x1="300.0" y1="153.6" x2="282.5" y2="123.3" stroke="#A8843F" stroke-width="3.5" opacity="0.28"/><line x1="363.2" y1="124.1" x2="351.2" y2="91.2" stroke="#A8843F" stroke-width="3.5" opacity="0.28"/><line x1="430.5" y1="106.1" x2="424.5" y2="71.6" stroke="#A8843F" stroke-width="3.5" opacity="0.28"/><line x1="500.0" y1="100.0" x2="500.0" y2="65.0" stroke="#A8843F" stroke-width="3.5" opacity="0.28"/><line x1="569.5" y1="106.1" x2="575.5" y2="71.6" stroke="#A8843F" stroke-width="3.5" opacity="0.28"/><line x1="636.8" y1="124.1" x2="648.8" y2="91.2" stroke="#A8843F" stroke-width="3.5" opacity="0.28"/><line x1="700.0" y1="153.6" x2="717.5" y2="123.3" stroke="#A8843F" stroke-width="3.5" opacity="0.28"/><line x1="757.1" y1="193.6" x2="779.6" y2="166.8" stroke="#A8843F" stroke-width="3.5" opacity="0.28"/><line x1="806.4" y1="242.9" x2="833.2" y2="220.4" stroke="#A8843F" stroke-width="3.5" opacity="0.28"/><line x1="846.4" y1="300.0" x2="876.7" y2="282.5" stroke="#A8843F" stroke-width="3.5" opacity="0.28"/><line x1="875.9" y1="363.2" x2="908.8" y2="351.2" stroke="#A8843F" stroke-width="3.5" opacity="0.28"/><line x1="893.9" y1="430.5" x2="928.4" y2="424.5" stroke="#A8843F" stroke-width="3.5" opacity="0.28"/><g transform="translate(800.0,200.0) rotate(24)"><line x1="0" y1="0" x2="-60.0" y2="340.0" stroke="url(#metalV)" stroke-width="14.0" stroke-linecap="round"/><line x1="0" y1="0" x2="60.0" y2="340.0" stroke="url(#metalV)" stroke-width="14.0" stroke-linecap="round"/><circle cx="0" cy="0" r="18.0" fill="url(#metal)"/></g><g filter="url(#cast)"><ellipse cx="500.0" cy="520.0" rx="155.0" ry="160.0" fill="none" stroke="url(#metal)" stroke-width="45.0"/><g transform="translate(500.0,345.0)"><polygon points="-75.0,-22.5 -45.0,-67.5 45.0,-67.5 75.0,-22.5 0,48.8" fill="url(#stone)" stroke="#F0E0B4" stroke-width="3.0"/></g></g><ellipse cx="500.0" cy="730.0" rx="220.0" ry="30.0" fill="url(#fade)" filter="url(#soft)" opacity="0.9"/></g><rect width="1000" height="1000" fill="url(#vig)"/><rect width="1000" height="1000" filter="url(#grain)" opacity="0.04"/></svg>